<svg xmlns="http://www.w3.org/2000/svg" style="enable-background:new 0 0 219.152 219.152" viewBox="0 0 219.152 219.152" xml:space="preserve"><path d="M211.652 0H7.5A7.5 7.5 0 0 0 0 7.5v204.152a7.5 7.5 0 0 0 7.5 7.5h204.152c4.143 0 7.5-3.357 7.5-7.5V7.5a7.5 7.5 0 0 0-7.5-7.5zm-7.5 204.152H15V15h189.152v189.152z"/><path d="M53.235 165.917a7.477 7.477 0 0 0 5.303 2.196 7.477 7.477 0 0 0 5.303-2.196l45.735-45.733 45.733 45.733a7.48 7.48 0 0 0 5.304 2.196 7.5 7.5 0 0 0 5.304-12.803l-45.732-45.733 45.734-45.733a7.5 7.5 0 0 0-10.607-10.607L109.578 98.97 63.842 53.233A7.501 7.501 0 0 0 53.236 63.84l45.734 45.735-45.735 45.735a7.5 7.5 0 0 0 0 10.607z"/></svg>