<svg xmlns="http://www.w3.org/2000/svg" style="enable-background:new 0 0 330 330" viewBox="0 0 330 330" xml:space="preserve"><path d="M325.606 84.668 245.334 4.394A15 15 0 0 0 234.727.001h-39.708L195 0H75l-.02.001H15c-8.284 0-15 6.716-15 15V315c0 8.284 6.716 15 15 15h300c8.284 0 15-6.716 15-15V95.274c0-3.978-1.58-7.794-4.394-10.606zM90 30.001h90V110H90V30.001zM90 300v-80h150v80H90zm210 0h-30v-95c0-8.284-6.716-15-15-15H75c-8.284 0-15 6.716-15 15v95H30V30.001h30V125c0 8.284 6.716 15 15 15h120c8.284 0 15-6.716 15-15V30.001h18.514L300 101.487V300z"/></svg>